<svg width="21" height="20" viewBox="0 0 21 20" fill="none" xmlns="http://www.w3.org/2000/svg">
<path d="M18.6319 7.61132C18.0485 7.61132 17.5208 7.83313 17.1076 8.18752L12.714 4.03485C13.0303 3.61224 13.2251 3.09265 13.2251 2.52346C13.2251 1.13193 12.1023 0 10.7232 0C9.3441 0 8.22129 1.13174 8.22129 2.52346C8.22129 2.77478 8.26918 3.01355 8.33755 3.24274L4.1419 5.19351C3.75106 4.53858 3.04651 4.09606 2.23374 4.09606C1.00015 4.09606 0 5.10482 0 6.34904C0 7.59325 1.00015 8.60201 2.23374 8.60201C2.65 8.60201 3.03481 8.4794 3.36844 8.27989L4.67424 9.99096L3.35948 11.7142C3.02805 11.5173 2.64634 11.3969 2.23374 11.3969C1.00015 11.3969 0 12.4056 0 13.6499C0 14.8941 1.00015 15.9028 2.23374 15.9028C3.052 15.9028 3.76002 15.4544 4.14922 14.7923L8.34231 16.742C8.27101 16.9761 8.22165 17.2195 8.22165 17.4765C8.22165 18.8683 9.34428 20 10.7236 20C12.1027 20 13.2255 18.8683 13.2255 17.4765C13.2255 16.9125 13.0348 16.3972 12.7239 15.9768L17.1195 11.8215C17.5312 12.1696 18.0542 12.3876 18.6323 12.3876C19.9382 12.3876 21 11.3159 21 9.99945C21 8.68295 19.9377 7.61132 18.6319 7.61132ZM10.7232 14.9531C10.2457 14.9531 9.80368 15.0956 9.42454 15.3303L6.8142 11.9091L8.51469 11.1598C8.93314 11.9657 9.7609 12.5229 10.7234 12.5229C12.0109 12.5229 13.0623 11.5331 13.1979 10.2699H16.2914C16.3407 10.7031 16.5003 11.0995 16.7486 11.4308L12.3572 15.5813C11.9175 15.195 11.3506 14.9531 10.7232 14.9531ZM8.31818 10.6564L6.47729 11.4675L5.35064 9.99078L6.47729 8.5148L8.32275 9.32811C8.26333 9.5431 8.22147 9.76546 8.22147 9.99945C8.22147 10.2281 8.2615 10.4458 8.31818 10.6564ZM16.2912 9.72914H13.1977C13.0621 8.46575 12.0107 7.47617 10.7232 7.47617C9.7662 7.47617 8.94247 8.02747 8.52164 8.82603L6.8142 8.07338L9.41539 4.66433C9.79655 4.90255 10.2426 5.04674 10.7234 5.04674C11.3453 5.04674 11.9078 4.80815 12.346 4.42777L16.7385 8.58025C16.4954 8.90938 16.3395 9.30137 16.2912 9.72914ZM8.54577 3.74113C8.66679 3.96036 8.81176 4.16263 8.98908 4.33539L6.30782 7.84991L4.36365 6.99272C4.42453 6.78731 4.4673 6.57454 4.4673 6.34904C4.4673 6.11782 4.42288 5.89859 4.35835 5.68839L8.54577 3.74113ZM3.79749 7.95501C3.93624 7.81765 4.05086 7.65871 4.15031 7.48871L5.97091 8.29151L5.01244 9.54771L3.79749 7.95501ZM5.01244 10.4346L5.97091 11.691L4.14318 12.4967C4.04355 12.3288 3.92765 12.1724 3.78981 12.0374L5.01244 10.4346ZM4.36274 14.2961C4.42453 14.0902 4.46749 13.8757 4.46749 13.6497C4.46749 13.4188 4.42306 13.2007 4.35908 12.9916L6.30801 12.1324L8.99749 15.6576C8.82053 15.8287 8.67483 16.0278 8.55345 16.2445L4.36274 14.2961Z" fill="#64B5F6"/>
</svg>
